<svg xmlns="http://www.w3.org/2000/svg" width="320" height="320" viewBox="0 0 300 300" role="img" aria-label="coruja"><defs><radialGradient id="sky"><stop offset="0" stop-color="#ffd47c" stop-opacity=".33"/><stop offset=".64" stop-color="#101b2e"/><stop offset="1" stop-color="#050a13"/></radialGradient><linearGradient id="body" x1="0" y1="0" x2="1" y2="1"><stop offset="0" stop-color="#ffd47c"/><stop offset=".48" stop-color="#9779b4"/><stop offset="1" stop-color="#273045"/></linearGradient><filter id="blur"><feGaussianBlur stdDeviation="16"/></filter></defs><rect x="0" y="0" width="300" height="300" rx="22" fill="url(#sky)"/><circle cx="148" cy="160" r="109" stroke="#ffd47c" stroke-width="2" stroke-opacity=".25" fill="none"/><ellipse cx="150" cy="154" rx="101" ry="100" fill="#ffd47c" opacity=".09" filter="url(#blur)"/><path d="M28 67V35h32m180 0h32v32M28 231v32h32m180 0h32v-32" fill="none" stroke="#ffd47c" opacity=".58" stroke-width="2"/><g fill="#ffd47c"><circle cx="47" cy="97" r="2"/><circle cx="258" cy="88" r="2"/><circle cx="263" cy="221" r="3"/><circle cx="31" cy="214" r="2"/></g><ellipse cx="149" cy="272" rx="92" ry="15" fill="#02060e" opacity=".7"/><g stroke-linecap="round" stroke-linejoin="round"><path d="M71 165L62 66 115 108Q148 88 179 108L230 66 219 165Q244 241 182 257H105Q46 239 71 165Z" fill="url(#body)" stroke="#e9d3fa" stroke-width="6"/><path d="M72 173Q30 195 71 246L105 251M219 173Q261 195 219 246L187 251" fill="url(#body)" stroke="#b69de1" stroke-width="4"/><circle cx="115" cy="191" r="47" fill="#eadac8"/><circle cx="179" cy="191" r="47" fill="#eadac8"/><circle cx="115" cy="191" r="30" fill="#ecb65f"/><circle cx="179" cy="191" r="30" fill="#ecb65f"/><ellipse cx="115" cy="191" rx="17" ry="11.899999999999999" fill="#0e1627"/><circle cx="113" cy="189" r="2" fill="#ffffff"/><ellipse cx="179" cy="191" rx="17" ry="11.899999999999999" fill="#0e1627"/><circle cx="177" cy="189" r="2" fill="#ffffff"/><path d="M132 214l15 23 15-23Z" fill="#e99b4d"/><path d="M118 254l-7 20m68-20 7 20" stroke="#f5b968" stroke-width="6"/></g><path d="M78 279h144" stroke="#ffd47c" opacity=".35"/></svg>