<svg xmlns="http://www.w3.org/2000/svg" width="320" height="320" viewBox="0 0 300 300" role="img" aria-label="guepardo"><defs><radialGradient id="sky"><stop offset="0" stop-color="#fae6aa" stop-opacity=".33"/><stop offset=".64" stop-color="#101b2e"/><stop offset="1" stop-color="#050a13"/></radialGradient><linearGradient id="body" x1="0" y1="0" x2="1" y2="1"><stop offset="0" stop-color="#fae6aa"/><stop offset=".48" stop-color="#e3b46a"/><stop offset="1" stop-color="#273045"/></linearGradient><filter id="blur"><feGaussianBlur stdDeviation="16"/></filter></defs><rect x="0" y="0" width="300" height="300" rx="22" fill="url(#sky)"/><circle cx="148" cy="160" r="109" stroke="#fae6aa" stroke-width="2" stroke-opacity=".25" fill="none"/><ellipse cx="150" cy="154" rx="101" ry="100" fill="#fae6aa" opacity=".09" filter="url(#blur)"/><path d="M28 67V35h32m180 0h32v32M28 231v32h32m180 0h32v-32" fill="none" stroke="#fae6aa" opacity=".58" stroke-width="2"/><g fill="#fae6aa"><circle cx="47" cy="97" r="2"/><circle cx="258" cy="88" r="2"/><circle cx="263" cy="221" r="3"/><circle cx="31" cy="214" r="2"/></g><ellipse cx="149" cy="272" rx="92" ry="15" fill="#02060e" opacity=".7"/><g stroke-linecap="round" stroke-linejoin="round"><path d="M85 143L72 68 124 109Q145 100 170 110L226 68 211 148" fill="url(#body)" stroke="#f5ddb7" stroke-width="5"/><path d="M94 114L85 90 115 115m89-1 10-24-31 25" fill="#df9b98" opacity=".75"/><ellipse cx="147" cy="194" rx="93" ry="75" fill="url(#body)" stroke="#f8dfc6" stroke-width="5"/><ellipse cx="111" cy="183" rx="13" ry="9.1" fill="#0e1627"/><circle cx="109" cy="181" r="2" fill="#ffffff"/><ellipse cx="184" cy="183" rx="13" ry="9.1" fill="#0e1627"/><circle cx="182" cy="181" r="2" fill="#ffffff"/><path d="M136 209l11 9 11-9-11-4Z" fill="#d98994"/><path d="M147 220q-14 11-30-2m30 2q14 11 30-2" stroke="#754a5b" stroke-width="4" fill="none"/><path d="M53 211l66 8m-66 11 66-4m121-15-66 8m66 11-66-4" stroke="#fae8cf" stroke-width="3"/><path d="M84 160l22 12m104-12-22 12" stroke="#493444" stroke-width="5" opacity=".45"/></g><path d="M78 279h144" stroke="#fae6aa" opacity=".35"/></svg>