<svg xmlns="http://www.w3.org/2000/svg" width="320" height="320" viewBox="0 0 300 300" role="img" aria-label="leao solar"><defs><radialGradient id="sky"><stop offset="0" stop-color="#ffe2a0" stop-opacity=".33"/><stop offset=".64" stop-color="#101b2e"/><stop offset="1" stop-color="#050a13"/></radialGradient><linearGradient id="body" x1="0" y1="0" x2="1" y2="1"><stop offset="0" stop-color="#ffe2a0"/><stop offset=".48" stop-color="#e8a855"/><stop offset="1" stop-color="#273045"/></linearGradient><filter id="blur"><feGaussianBlur stdDeviation="16"/></filter></defs><rect x="0" y="0" width="300" height="300" rx="22" fill="url(#sky)"/><circle cx="148" cy="160" r="109" stroke="#ffe2a0" stroke-width="2" stroke-opacity=".25" fill="none"/><ellipse cx="150" cy="154" rx="101" ry="100" fill="#ffe2a0" opacity=".09" filter="url(#blur)"/><path d="M28 67V35h32m180 0h32v32M28 231v32h32m180 0h32v-32" fill="none" stroke="#ffe2a0" opacity=".58" stroke-width="2"/><g fill="#ffe2a0"><circle cx="47" cy="97" r="2"/><circle cx="258" cy="88" r="2"/><circle cx="263" cy="221" r="3"/><circle cx="31" cy="214" r="2"/></g><ellipse cx="149" cy="272" rx="92" ry="15" fill="#02060e" opacity=".7"/><g stroke-linecap="round" stroke-linejoin="round"><path d="M147 77l39 21 37 1-8 41 29 34-24 35-7 38-49 17-36 14-51-21-39-15-1-42-19-36 25-32-1-41 39 0Z" fill="#bd6c44" stroke="#ffd392" stroke-width="5"/><path d="M86 140L76 75l56 31h31l58-31-12 65" fill="url(#body)" stroke="#fff2bc" stroke-width="4"/><ellipse cx="147" cy="191" rx="77" ry="70" fill="url(#body)" stroke="#ffe6b7" stroke-width="4"/><ellipse cx="119" cy="180" rx="11" ry="7.699999999999999" fill="#0e1627"/><circle cx="117" cy="178" r="2" fill="#ffffff"/><ellipse cx="176" cy="180" rx="11" ry="7.699999999999999" fill="#0e1627"/><circle cx="174" cy="178" r="2" fill="#ffffff"/><path d="M131 211l16 14 15-14Z" fill="#b47871"/><path d="M147 225q-20 10-32-5m32 5q20 10 32-5" stroke="#9b6059" stroke-width="4" fill="none"/></g><path d="M78 279h144" stroke="#ffe2a0" opacity=".35"/></svg>