<svg xmlns="http://www.w3.org/2000/svg" width="320" height="320" viewBox="0 0 300 300" role="img" aria-label="rinoceronte"><defs><radialGradient id="sky"><stop offset="0" stop-color="#bce0e3" stop-opacity=".33"/><stop offset=".64" stop-color="#101b2e"/><stop offset="1" stop-color="#050a13"/></radialGradient><linearGradient id="body" x1="0" y1="0" x2="1" y2="1"><stop offset="0" stop-color="#bce0e3"/><stop offset=".48" stop-color="#9aa6b1"/><stop offset="1" stop-color="#273045"/></linearGradient><filter id="blur"><feGaussianBlur stdDeviation="16"/></filter></defs><rect x="0" y="0" width="300" height="300" rx="22" fill="url(#sky)"/><circle cx="148" cy="160" r="109" stroke="#bce0e3" stroke-width="2" stroke-opacity=".25" fill="none"/><ellipse cx="150" cy="154" rx="101" ry="100" fill="#bce0e3" opacity=".09" filter="url(#blur)"/><path d="M28 67V35h32m180 0h32v32M28 231v32h32m180 0h32v-32" fill="none" stroke="#bce0e3" opacity=".58" stroke-width="2"/><g fill="#bce0e3"><circle cx="47" cy="97" r="2"/><circle cx="258" cy="88" r="2"/><circle cx="263" cy="221" r="3"/><circle cx="31" cy="214" r="2"/></g><ellipse cx="149" cy="272" rx="92" ry="15" fill="#02060e" opacity=".7"/><g stroke-linecap="round" stroke-linejoin="round"><path d="M66 170L44 116 84 133q63-40 121 0l41-17-20 54q29 68-26 94H98Q41 239 66 170Z" fill="url(#body)" stroke="#e6f1fa" stroke-width="5"/><path d="M128 135l18-98 23 98Z" fill="#e5f3f8" stroke="#fff" stroke-width="4"/><ellipse cx="147" cy="221" rx="55" ry="32" fill="#d2e5ef" opacity=".42"/><ellipse cx="103" cy="185" rx="9" ry="6.3" fill="#0e1627"/><circle cx="101" cy="183" r="2" fill="#ffffff"/><ellipse cx="191" cy="185" rx="9" ry="6.3" fill="#0e1627"/><circle cx="189" cy="183" r="2" fill="#ffffff"/><path d="M122 245q26 14 52 0" stroke="#5d7b8c" stroke-width="5" fill="none"/></g><path d="M78 279h144" stroke="#bce0e3" opacity=".35"/></svg>