<svg xmlns="http://www.w3.org/2000/svg" width="320" height="320" viewBox="0 0 300 300" role="img" aria-label="serpente cosmica"><defs><radialGradient id="sky"><stop offset="0" stop-color="#d6a9f9" stop-opacity=".33"/><stop offset=".64" stop-color="#101b2e"/><stop offset="1" stop-color="#050a13"/></radialGradient><linearGradient id="body" x1="0" y1="0" x2="1" y2="1"><stop offset="0" stop-color="#d6a9f9"/><stop offset=".48" stop-color="#6177a1"/><stop offset="1" stop-color="#273045"/></linearGradient><filter id="blur"><feGaussianBlur stdDeviation="16"/></filter></defs><rect x="0" y="0" width="300" height="300" rx="22" fill="url(#sky)"/><circle cx="148" cy="160" r="109" stroke="#d6a9f9" stroke-width="2" stroke-opacity=".25" fill="none"/><ellipse cx="150" cy="154" rx="101" ry="100" fill="#d6a9f9" opacity=".09" filter="url(#blur)"/><path d="M28 67V35h32m180 0h32v32M28 231v32h32m180 0h32v-32" fill="none" stroke="#d6a9f9" opacity=".58" stroke-width="2"/><g fill="#d6a9f9"><circle cx="47" cy="97" r="2"/><circle cx="258" cy="88" r="2"/><circle cx="263" cy="221" r="3"/><circle cx="31" cy="214" r="2"/></g><ellipse cx="149" cy="272" rx="92" ry="15" fill="#02060e" opacity=".7"/><g stroke-linecap="round" stroke-linejoin="round"><path d="M56 241Q22 168 86 146q66-24 93 40 16 29 40-16t-10-91" fill="none" stroke="#14283b" stroke-width="70" stroke-linecap="round"/><path d="M56 241Q22 168 86 146q66-24 93 40 16 29 40-16t-10-91" fill="none" stroke="url(#body)" stroke-width="52" stroke-linecap="round"/><path d="M56 241Q22 168 86 146q66-24 93 40" stroke="#d9faff" stroke-width="9" opacity=".55" fill="none"/><path d="M182 78q30-52 57-12 13 36-26 48l-29-17Z" fill="url(#body)" stroke="#d4faff" stroke-width="4"/><ellipse cx="226" cy="84" rx="6" ry="4.199999999999999" fill="#0e1627"/><circle cx="224" cy="82" r="2" fill="#ffffff"/><path d="M235 102l-25 15" stroke="#d4faff" stroke-width="4"/></g><path d="M78 279h144" stroke="#d6a9f9" opacity=".35"/></svg>