<svg xmlns="http://www.w3.org/2000/svg" width="320" height="320" viewBox="0 0 300 300" role="img" aria-label="urso runico"><defs><radialGradient id="sky"><stop offset="0" stop-color="#bff2ef" stop-opacity=".33"/><stop offset=".64" stop-color="#101b2e"/><stop offset="1" stop-color="#050a13"/></radialGradient><linearGradient id="body" x1="0" y1="0" x2="1" y2="1"><stop offset="0" stop-color="#bff2ef"/><stop offset=".48" stop-color="#9a8a9e"/><stop offset="1" stop-color="#273045"/></linearGradient><filter id="blur"><feGaussianBlur stdDeviation="16"/></filter></defs><rect x="0" y="0" width="300" height="300" rx="22" fill="url(#sky)"/><circle cx="148" cy="160" r="109" stroke="#bff2ef" stroke-width="2" stroke-opacity=".25" fill="none"/><ellipse cx="150" cy="154" rx="101" ry="100" fill="#bff2ef" opacity=".09" filter="url(#blur)"/><path d="M28 67V35h32m180 0h32v32M28 231v32h32m180 0h32v-32" fill="none" stroke="#bff2ef" opacity=".58" stroke-width="2"/><g fill="#bff2ef"><circle cx="47" cy="97" r="2"/><circle cx="258" cy="88" r="2"/><circle cx="263" cy="221" r="3"/><circle cx="31" cy="214" r="2"/></g><ellipse cx="149" cy="272" rx="92" ry="15" fill="#02060e" opacity=".7"/><g stroke-linecap="round" stroke-linejoin="round"><circle cx="83" cy="119" r="39" fill="url(#body)" stroke="#f5dfec" stroke-width="5"/><circle cx="212" cy="119" r="39" fill="url(#body)" stroke="#f5dfec" stroke-width="5"/><ellipse cx="147" cy="194" rx="95" ry="82" fill="url(#body)" stroke="#efe2ee" stroke-width="5"/><ellipse cx="116" cy="181" rx="11" ry="7.699999999999999" fill="#0e1627"/><circle cx="114" cy="179" r="2" fill="#ffffff"/><ellipse cx="182" cy="181" rx="11" ry="7.699999999999999" fill="#0e1627"/><circle cx="180" cy="179" r="2" fill="#ffffff"/><ellipse cx="148" cy="225" rx="39" ry="30" fill="#ddd0db"/><path d="M134 211l14 14 14-14Z" fill="#483b4d"/><path d="M148 226q-18 14-33 1m33-1q18 14 33 1" stroke="#755c70" stroke-width="5" fill="none"/></g><path d="M78 279h144" stroke="#bff2ef" opacity=".35"/></svg>